<svg xmlns="http://www.w3.org/2000/svg" xmlns:xlink="http://www.w3.org/1999/xlink" width="500" zoomAndPan="magnify" viewBox="0 0 375 374.999991" height="500" preserveAspectRatio="xMidYMid meet" version="1.0"><defs><filter x="0%" y="0%" width="100%" height="100%" id="005b75fbc9"><feColorMatrix values="0 0 0 0 1 0 0 0 0 1 0 0 0 0 1 0 0 0 1 0" color-interpolation-filters="sRGB"/></filter><g/><mask id="21112288b4"><g filter="url(#005b75fbc9)"><rect x="-37.5" width="450" fill="#000000" y="-37.499999" height="449.999989" fill-opacity="0.25"/></g></mask><clipPath id="e406818a5d"><path d="M 1 0.28125 L 11 0.28125 L 11 10.839844 L 1 10.839844 Z M 1 0.28125 " clip-rule="nonzero"/></clipPath><clipPath id="8903eaa1fe"><rect x="0" width="12" y="0" height="11"/></clipPath><clipPath id="92b3d9e397"><path d="M 139 171 L 149.5625 171 L 149.5625 182 L 139 182 Z M 139 171 " clip-rule="nonzero"/></clipPath><mask id="0d3e75e758"><g filter="url(#005b75fbc9)"><rect x="-37.5" width="450" fill="#000000" y="-37.499999" height="449.999989" fill-opacity="0.4"/></g></mask><clipPath id="4d4747e26e"><path d="M 1 0.359375 L 10.5625 0.359375 L 10.5625 10.921875 L 1 10.921875 Z M 1 0.359375 " clip-rule="nonzero"/></clipPath><clipPath id="645bb6b977"><rect x="0" width="11" y="0" height="11"/></clipPath><mask id="3748677182"><g filter="url(#005b75fbc9)"><rect x="-37.5" width="450" fill="#000000" y="-37.499999" height="449.999989" fill-opacity="0.5"/></g></mask><clipPath id="6b3db6a838"><rect x="0" width="12" y="0" height="13"/></clipPath><clipPath id="86d9c7d63e"><path d="M 116 195 L 127 195 L 127 205.132812 L 116 205.132812 Z M 116 195 " clip-rule="nonzero"/></clipPath><mask id="44d2a6906e"><g filter="url(#005b75fbc9)"><rect x="-37.5" width="450" fill="#000000" y="-37.499999" height="449.999989" fill-opacity="0.6"/></g></mask><clipPath id="e8a62fe297"><path d="M 0.160156 0.121094 L 10.71875 0.121094 L 10.71875 10.132812 L 0.160156 10.132812 Z M 0.160156 0.121094 " clip-rule="nonzero"/></clipPath><clipPath id="d014f70194"><rect x="0" width="11" y="0" height="11"/></clipPath><mask id="52a84515a2"><g filter="url(#005b75fbc9)"><rect x="-37.5" width="450" fill="#000000" y="-37.499999" height="449.999989" fill-opacity="0.7"/></g></mask><clipPath id="aec7004372"><path d="M 1 0.640625 L 11.640625 0.640625 L 11.640625 11 L 1 11 Z M 1 0.640625 " clip-rule="nonzero"/></clipPath><clipPath id="811e17b1de"><rect x="0" width="12" y="0" height="12"/></clipPath><clipPath id="a49e8e2cbf"><path d="M 93.3125 172 L 104 172 L 104 183 L 93.3125 183 Z M 93.3125 172 " clip-rule="nonzero"/></clipPath><mask id="3525871dfe"><g filter="url(#005b75fbc9)"><rect x="-37.5" width="450" fill="#000000" y="-37.499999" height="449.999989" fill-opacity="0.8"/></g></mask><clipPath id="98fc3db0d6"><path d="M 0.3125 0.078125 L 10.679688 0.078125 L 10.679688 10.398438 L 0.3125 10.398438 Z M 0.3125 0.078125 " clip-rule="nonzero"/></clipPath><clipPath id="d5b750d15f"><rect x="0" width="11" y="0" height="11"/></clipPath><mask id="497cef4a81"><g filter="url(#005b75fbc9)"><rect x="-37.5" width="450" fill="#000000" y="-37.499999" height="449.999989" fill-opacity="0.9"/></g></mask><clipPath id="ca4051ce54"><path d="M 1 0.28125 L 11 0.28125 L 11 10.839844 L 1 10.839844 Z M 1 0.28125 " clip-rule="nonzero"/></clipPath><clipPath id="a52046b4c7"><rect x="0" width="12" y="0" height="11"/></clipPath></defs><path fill="#8c52ff" d="M 126.355469 153.917969 C 126.355469 154.238281 126.324219 154.554688 126.261719 154.867188 C 126.199219 155.183594 126.105469 155.488281 125.984375 155.78125 C 125.859375 156.078125 125.710938 156.359375 125.53125 156.625 C 125.355469 156.890625 125.152344 157.136719 124.925781 157.363281 C 124.699219 157.589844 124.453125 157.792969 124.1875 157.96875 C 123.921875 158.148438 123.640625 158.296875 123.347656 158.417969 C 123.050781 158.542969 122.746094 158.632812 122.433594 158.695312 C 122.117188 158.757812 121.800781 158.789062 121.480469 158.789062 C 121.160156 158.789062 120.84375 158.757812 120.53125 158.695312 C 120.214844 158.632812 119.910156 158.542969 119.617188 158.417969 C 119.320312 158.296875 119.039062 158.148438 118.773438 157.96875 C 118.507812 157.792969 118.261719 157.589844 118.035156 157.363281 C 117.808594 157.136719 117.605469 156.890625 117.429688 156.625 C 117.25 156.359375 117.101562 156.078125 116.980469 155.78125 C 116.855469 155.488281 116.765625 155.183594 116.703125 154.867188 C 116.640625 154.554688 116.609375 154.238281 116.609375 153.917969 C 116.609375 153.597656 116.640625 153.28125 116.703125 152.964844 C 116.765625 152.652344 116.855469 152.347656 116.980469 152.050781 C 117.101562 151.757812 117.25 151.476562 117.429688 151.210938 C 117.605469 150.945312 117.808594 150.699219 118.035156 150.472656 C 118.261719 150.246094 118.507812 150.042969 118.773438 149.867188 C 119.039062 149.6875 119.320312 149.539062 119.617188 149.414062 C 119.910156 149.292969 120.214844 149.199219 120.53125 149.136719 C 120.84375 149.074219 121.160156 149.042969 121.480469 149.042969 C 121.800781 149.042969 122.117188 149.074219 122.433594 149.136719 C 122.746094 149.199219 123.050781 149.292969 123.347656 149.414062 C 123.640625 149.539062 123.921875 149.6875 124.1875 149.867188 C 124.453125 150.042969 124.699219 150.246094 124.925781 150.472656 C 125.152344 150.699219 125.355469 150.945312 125.53125 151.210938 C 125.710938 151.476562 125.859375 151.757812 125.984375 152.050781 C 126.105469 152.347656 126.199219 152.652344 126.261719 152.964844 C 126.324219 153.28125 126.355469 153.597656 126.355469 153.917969 Z M 126.355469 153.917969 " fill-opacity="1" fill-rule="nonzero"/><g mask="url(#21112288b4)"><g transform="matrix(1, 0, 0, 1, 132, 155)"><g clip-path="url(#8903eaa1fe)"><g clip-path="url(#e406818a5d)"><path fill="#8c52ff" d="M 10.882812 5.605469 C 10.882812 5.925781 10.851562 6.242188 10.789062 6.554688 C 10.726562 6.871094 10.636719 7.175781 10.511719 7.46875 C 10.390625 7.765625 10.242188 8.046875 10.0625 8.3125 C 9.886719 8.578125 9.683594 8.824219 9.457031 9.050781 C 9.230469 9.277344 8.984375 9.480469 8.71875 9.65625 C 8.453125 9.835938 8.171875 9.984375 7.875 10.105469 C 7.582031 10.230469 7.277344 10.324219 6.960938 10.382812 C 6.648438 10.445312 6.332031 10.476562 6.011719 10.476562 C 5.691406 10.476562 5.375 10.445312 5.0625 10.382812 C 4.746094 10.324219 4.441406 10.230469 4.148438 10.105469 C 3.851562 9.984375 3.570312 9.835938 3.304688 9.65625 C 3.039062 9.480469 2.792969 9.277344 2.566406 9.050781 C 2.339844 8.824219 2.136719 8.578125 1.960938 8.3125 C 1.78125 8.046875 1.632812 7.765625 1.507812 7.46875 C 1.386719 7.175781 1.292969 6.871094 1.230469 6.554688 C 1.167969 6.242188 1.136719 5.925781 1.136719 5.605469 C 1.136719 5.285156 1.167969 4.96875 1.230469 4.65625 C 1.292969 4.339844 1.386719 4.035156 1.507812 3.742188 C 1.632812 3.445312 1.78125 3.164062 1.960938 2.898438 C 2.136719 2.632812 2.339844 2.386719 2.566406 2.160156 C 2.792969 1.933594 3.039062 1.730469 3.304688 1.554688 C 3.570312 1.375 3.851562 1.226562 4.148438 1.101562 C 4.441406 0.980469 4.746094 0.886719 5.0625 0.824219 C 5.375 0.761719 5.691406 0.730469 6.011719 0.730469 C 6.332031 0.730469 6.648438 0.761719 6.960938 0.824219 C 7.277344 0.886719 7.582031 0.980469 7.875 1.101562 C 8.171875 1.226562 8.453125 1.375 8.71875 1.554688 C 8.984375 1.730469 9.230469 1.933594 9.457031 2.160156 C 9.683594 2.386719 9.886719 2.632812 10.0625 2.898438 C 10.242188 3.164062 10.390625 3.445312 10.511719 3.742188 C 10.636719 4.035156 10.726562 4.339844 10.789062 4.65625 C 10.851562 4.96875 10.882812 5.285156 10.882812 5.605469 Z M 10.882812 5.605469 " fill-opacity="1" fill-rule="nonzero"/></g></g></g></g><g clip-path="url(#92b3d9e397)"><g mask="url(#0d3e75e758)"><g transform="matrix(1, 0, 0, 1, 139, 171)"><g clip-path="url(#645bb6b977)"><g clip-path="url(#4d4747e26e)"><path fill="#8c52ff" d="M 10.757812 5.746094 C 10.757812 6.0625 10.726562 6.382812 10.664062 6.695312 C 10.601562 7.007812 10.507812 7.3125 10.386719 7.609375 C 10.265625 7.90625 10.113281 8.1875 9.9375 8.453125 C 9.757812 8.71875 9.558594 8.964844 9.332031 9.191406 C 9.105469 9.417969 8.859375 9.617188 8.59375 9.796875 C 8.328125 9.972656 8.046875 10.125 7.75 10.246094 C 7.453125 10.367188 7.148438 10.460938 6.835938 10.523438 C 6.523438 10.585938 6.207031 10.617188 5.886719 10.617188 C 5.566406 10.617188 5.25 10.585938 4.933594 10.523438 C 4.621094 10.460938 4.316406 10.367188 4.019531 10.246094 C 3.726562 10.125 3.445312 9.972656 3.179688 9.796875 C 2.910156 9.617188 2.664062 9.417969 2.4375 9.191406 C 2.214844 8.964844 2.011719 8.71875 1.832031 8.453125 C 1.65625 8.1875 1.503906 7.90625 1.382812 7.609375 C 1.261719 7.3125 1.167969 7.007812 1.105469 6.695312 C 1.042969 6.382812 1.011719 6.0625 1.011719 5.746094 C 1.011719 5.425781 1.042969 5.105469 1.105469 4.792969 C 1.167969 4.480469 1.261719 4.175781 1.382812 3.878906 C 1.503906 3.582031 1.65625 3.304688 1.832031 3.035156 C 2.011719 2.769531 2.214844 2.523438 2.4375 2.296875 C 2.664062 2.070312 2.910156 1.871094 3.179688 1.691406 C 3.445312 1.515625 3.726562 1.363281 4.019531 1.242188 C 4.316406 1.121094 4.621094 1.027344 4.933594 0.964844 C 5.25 0.902344 5.566406 0.871094 5.886719 0.871094 C 6.207031 0.871094 6.523438 0.902344 6.835938 0.964844 C 7.148438 1.027344 7.453125 1.121094 7.75 1.242188 C 8.046875 1.363281 8.328125 1.515625 8.59375 1.691406 C 8.859375 1.871094 9.105469 2.070312 9.332031 2.296875 C 9.558594 2.523438 9.757812 2.769531 9.9375 3.035156 C 10.113281 3.304688 10.265625 3.582031 10.386719 3.878906 C 10.507812 4.175781 10.601562 4.480469 10.664062 4.792969 C 10.726562 5.105469 10.757812 5.425781 10.757812 5.746094 Z M 10.757812 5.746094 " fill-opacity="1" fill-rule="nonzero"/></g></g></g></g></g><g mask="url(#3748677182)"><g transform="matrix(1, 0, 0, 1, 132, 187)"><g clip-path="url(#6b3db6a838)"><path fill="#8c52ff" d="M 10.972656 6.652344 C 10.972656 6.972656 10.941406 7.289062 10.878906 7.601562 C 10.816406 7.917969 10.726562 8.222656 10.601562 8.519531 C 10.480469 8.8125 10.332031 9.09375 10.152344 9.359375 C 9.976562 9.625 9.773438 9.871094 9.546875 10.097656 C 9.320312 10.324219 9.074219 10.527344 8.808594 10.703125 C 8.542969 10.882812 8.261719 11.03125 7.964844 11.15625 C 7.671875 11.277344 7.367188 11.371094 7.050781 11.433594 C 6.738281 11.496094 6.421875 11.527344 6.101562 11.527344 C 5.78125 11.527344 5.464844 11.496094 5.152344 11.433594 C 4.835938 11.371094 4.53125 11.277344 4.238281 11.15625 C 3.941406 11.03125 3.660156 10.882812 3.394531 10.703125 C 3.128906 10.527344 2.882812 10.324219 2.65625 10.097656 C 2.429688 9.871094 2.226562 9.625 2.050781 9.359375 C 1.871094 9.09375 1.722656 8.8125 1.597656 8.519531 C 1.476562 8.222656 1.382812 7.917969 1.320312 7.601562 C 1.257812 7.289062 1.226562 6.972656 1.226562 6.652344 C 1.226562 6.332031 1.257812 6.015625 1.320312 5.703125 C 1.382812 5.386719 1.476562 5.082031 1.597656 4.789062 C 1.722656 4.492188 1.871094 4.210938 2.050781 3.945312 C 2.226562 3.679688 2.429688 3.433594 2.65625 3.207031 C 2.882812 2.980469 3.128906 2.777344 3.394531 2.601562 C 3.660156 2.421875 3.941406 2.273438 4.238281 2.152344 C 4.53125 2.027344 4.835938 1.9375 5.152344 1.875 C 5.464844 1.8125 5.78125 1.78125 6.101562 1.78125 C 6.421875 1.78125 6.738281 1.8125 7.050781 1.875 C 7.367188 1.9375 7.671875 2.027344 7.964844 2.152344 C 8.261719 2.273438 8.542969 2.421875 8.808594 2.601562 C 9.074219 2.777344 9.320312 2.980469 9.546875 3.207031 C 9.773438 3.433594 9.976562 3.679688 10.152344 3.945312 C 10.332031 4.210938 10.480469 4.492188 10.601562 4.789062 C 10.726562 5.082031 10.816406 5.386719 10.878906 5.703125 C 10.941406 6.015625 10.972656 6.332031 10.972656 6.652344 Z M 10.972656 6.652344 " fill-opacity="1" fill-rule="nonzero"/></g></g></g><g clip-path="url(#86d9c7d63e)"><g mask="url(#44d2a6906e)"><g transform="matrix(1, 0, 0, 1, 116, 195)"><g clip-path="url(#d014f70194)"><g clip-path="url(#e8a62fe297)"><path fill="#8c52ff" d="M 10.558594 5.277344 C 10.558594 5.597656 10.527344 5.914062 10.464844 6.226562 C 10.402344 6.539062 10.3125 6.84375 10.1875 7.140625 C 10.066406 7.4375 9.917969 7.71875 9.738281 7.984375 C 9.558594 8.25 9.359375 8.496094 9.132812 8.722656 C 8.90625 8.949219 8.660156 9.152344 8.394531 9.328125 C 8.128906 9.507812 7.847656 9.65625 7.550781 9.777344 C 7.253906 9.902344 6.949219 9.992188 6.636719 10.054688 C 6.324219 10.117188 6.007812 10.148438 5.6875 10.148438 C 5.367188 10.148438 5.050781 10.117188 4.734375 10.054688 C 4.421875 9.992188 4.117188 9.902344 3.820312 9.777344 C 3.527344 9.65625 3.246094 9.507812 2.980469 9.328125 C 2.714844 9.152344 2.46875 8.949219 2.242188 8.722656 C 2.015625 8.496094 1.8125 8.25 1.632812 7.984375 C 1.457031 7.71875 1.308594 7.4375 1.183594 7.140625 C 1.0625 6.84375 0.96875 6.539062 0.90625 6.226562 C 0.84375 5.914062 0.8125 5.597656 0.8125 5.277344 C 0.8125 4.957031 0.84375 4.640625 0.90625 4.324219 C 0.96875 4.011719 1.0625 3.707031 1.183594 3.410156 C 1.308594 3.117188 1.457031 2.835938 1.632812 2.570312 C 1.8125 2.304688 2.015625 2.058594 2.242188 1.832031 C 2.46875 1.605469 2.714844 1.402344 2.980469 1.222656 C 3.246094 1.046875 3.527344 0.898438 3.820312 0.773438 C 4.117188 0.652344 4.421875 0.558594 4.734375 0.496094 C 5.050781 0.433594 5.367188 0.402344 5.6875 0.402344 C 6.007812 0.402344 6.324219 0.433594 6.636719 0.496094 C 6.949219 0.558594 7.253906 0.652344 7.550781 0.773438 C 7.847656 0.898438 8.128906 1.046875 8.394531 1.222656 C 8.660156 1.402344 8.90625 1.605469 9.132812 1.832031 C 9.359375 2.058594 9.558594 2.304688 9.738281 2.570312 C 9.917969 2.835938 10.066406 3.117188 10.1875 3.410156 C 10.3125 3.707031 10.402344 4.011719 10.464844 4.324219 C 10.527344 4.640625 10.558594 4.957031 10.558594 5.277344 Z M 10.558594 5.277344 " fill-opacity="1" fill-rule="nonzero"/></g></g></g></g></g><g mask="url(#52a84515a2)"><g transform="matrix(1, 0, 0, 1, 99, 188)"><g clip-path="url(#811e17b1de)"><g clip-path="url(#aec7004372)"><path fill="#8c52ff" d="M 11.03125 5.78125 C 11.03125 6.101562 11 6.417969 10.9375 6.730469 C 10.875 7.046875 10.78125 7.351562 10.660156 7.644531 C 10.535156 7.941406 10.386719 8.222656 10.207031 8.488281 C 10.03125 8.753906 9.828125 9 9.601562 9.226562 C 9.375 9.453125 9.128906 9.65625 8.863281 9.832031 C 8.597656 10.011719 8.316406 10.160156 8.019531 10.28125 C 7.726562 10.40625 7.421875 10.5 7.105469 10.558594 C 6.792969 10.621094 6.476562 10.652344 6.15625 10.652344 C 5.835938 10.652344 5.519531 10.621094 5.207031 10.558594 C 4.890625 10.5 4.585938 10.40625 4.292969 10.28125 C 3.996094 10.160156 3.714844 10.011719 3.449219 9.832031 C 3.183594 9.65625 2.9375 9.453125 2.710938 9.226562 C 2.484375 9 2.28125 8.753906 2.105469 8.488281 C 1.925781 8.222656 1.777344 7.941406 1.652344 7.644531 C 1.53125 7.351562 1.4375 7.046875 1.375 6.730469 C 1.3125 6.417969 1.28125 6.101562 1.28125 5.78125 C 1.28125 5.460938 1.3125 5.144531 1.375 4.832031 C 1.4375 4.515625 1.53125 4.210938 1.652344 3.917969 C 1.777344 3.621094 1.925781 3.339844 2.105469 3.074219 C 2.28125 2.808594 2.484375 2.5625 2.710938 2.335938 C 2.9375 2.109375 3.183594 1.90625 3.449219 1.730469 C 3.714844 1.550781 3.996094 1.402344 4.292969 1.277344 C 4.585938 1.15625 4.890625 1.0625 5.207031 1 C 5.519531 0.9375 5.835938 0.90625 6.15625 0.90625 C 6.476562 0.90625 6.792969 0.9375 7.105469 1 C 7.421875 1.0625 7.726562 1.15625 8.019531 1.277344 C 8.316406 1.402344 8.597656 1.550781 8.863281 1.730469 C 9.128906 1.90625 9.375 2.109375 9.601562 2.335938 C 9.828125 2.5625 10.03125 2.808594 10.207031 3.074219 C 10.386719 3.339844 10.535156 3.621094 10.660156 3.917969 C 10.78125 4.210938 10.875 4.515625 10.9375 4.832031 C 11 5.144531 11.03125 5.460938 11.03125 5.78125 Z M 11.03125 5.78125 " fill-opacity="1" fill-rule="nonzero"/></g></g></g></g><g clip-path="url(#a49e8e2cbf)"><g mask="url(#3525871dfe)"><g transform="matrix(1, 0, 0, 1, 93, 172)"><g clip-path="url(#d5b750d15f)"><g clip-path="url(#98fc3db0d6)"><path fill="#8c52ff" d="M 10.058594 5.160156 C 10.058594 5.480469 10.027344 5.796875 9.964844 6.113281 C 9.902344 6.425781 9.8125 6.730469 9.6875 7.027344 C 9.566406 7.320312 9.414062 7.601562 9.238281 7.867188 C 9.058594 8.132812 8.859375 8.378906 8.632812 8.605469 C 8.40625 8.832031 8.160156 9.035156 7.894531 9.214844 C 7.628906 9.390625 7.347656 9.539062 7.050781 9.664062 C 6.753906 9.785156 6.449219 9.878906 6.136719 9.941406 C 5.824219 10.003906 5.507812 10.035156 5.1875 10.035156 C 4.867188 10.035156 4.550781 10.003906 4.234375 9.941406 C 3.921875 9.878906 3.617188 9.785156 3.320312 9.664062 C 3.027344 9.539062 2.746094 9.390625 2.480469 9.214844 C 2.214844 9.035156 1.96875 8.832031 1.742188 8.605469 C 1.515625 8.378906 1.3125 8.132812 1.132812 7.867188 C 0.957031 7.601562 0.808594 7.320312 0.683594 7.027344 C 0.5625 6.730469 0.46875 6.425781 0.40625 6.113281 C 0.34375 5.796875 0.3125 5.480469 0.3125 5.160156 C 0.3125 4.839844 0.34375 4.523438 0.40625 4.210938 C 0.46875 3.898438 0.5625 3.59375 0.683594 3.296875 C 0.808594 3 0.957031 2.71875 1.132812 2.453125 C 1.3125 2.1875 1.515625 1.941406 1.742188 1.714844 C 1.96875 1.488281 2.214844 1.285156 2.480469 1.109375 C 2.746094 0.929688 3.027344 0.78125 3.320312 0.660156 C 3.617188 0.535156 3.921875 0.445312 4.234375 0.382812 C 4.550781 0.320312 4.867188 0.289062 5.1875 0.289062 C 5.507812 0.289062 5.824219 0.320312 6.136719 0.382812 C 6.449219 0.445312 6.753906 0.535156 7.050781 0.660156 C 7.347656 0.78125 7.628906 0.929688 7.894531 1.109375 C 8.160156 1.285156 8.40625 1.488281 8.632812 1.714844 C 8.859375 1.941406 9.058594 2.1875 9.238281 2.453125 C 9.414062 2.71875 9.566406 3 9.6875 3.296875 C 9.8125 3.59375 9.902344 3.898438 9.964844 4.210938 C 10.027344 4.523438 10.058594 4.839844 10.058594 5.160156 Z M 10.058594 5.160156 " fill-opacity="1" fill-rule="nonzero"/></g></g></g></g></g><g mask="url(#497cef4a81)"><g transform="matrix(1, 0, 0, 1, 99, 155)"><g clip-path="url(#a52046b4c7)"><g clip-path="url(#ca4051ce54)"><path fill="#8c52ff" d="M 10.933594 5.824219 C 10.933594 6.144531 10.902344 6.460938 10.839844 6.773438 C 10.777344 7.085938 10.683594 7.390625 10.5625 7.6875 C 10.441406 7.984375 10.289062 8.265625 10.113281 8.53125 C 9.933594 8.796875 9.730469 9.042969 9.507812 9.269531 C 9.28125 9.496094 9.035156 9.699219 8.765625 9.875 C 8.5 10.054688 8.21875 10.203125 7.925781 10.324219 C 7.628906 10.449219 7.324219 10.539062 7.011719 10.601562 C 6.695312 10.664062 6.378906 10.695312 6.058594 10.695312 C 5.738281 10.695312 5.421875 10.664062 5.109375 10.601562 C 4.796875 10.539062 4.492188 10.449219 4.195312 10.324219 C 3.898438 10.203125 3.617188 10.054688 3.351562 9.875 C 3.085938 9.699219 2.839844 9.496094 2.613281 9.269531 C 2.386719 9.042969 2.1875 8.796875 2.007812 8.53125 C 1.832031 8.265625 1.679688 7.984375 1.558594 7.6875 C 1.433594 7.390625 1.34375 7.085938 1.28125 6.773438 C 1.21875 6.460938 1.1875 6.144531 1.1875 5.824219 C 1.1875 5.503906 1.21875 5.1875 1.28125 4.871094 C 1.34375 4.558594 1.433594 4.253906 1.558594 3.957031 C 1.679688 3.664062 1.832031 3.382812 2.007812 3.117188 C 2.1875 2.851562 2.386719 2.605469 2.613281 2.378906 C 2.839844 2.152344 3.085938 1.949219 3.351562 1.769531 C 3.617188 1.59375 3.898438 1.445312 4.195312 1.320312 C 4.492188 1.199219 4.796875 1.105469 5.109375 1.042969 C 5.421875 0.980469 5.738281 0.949219 6.058594 0.949219 C 6.378906 0.949219 6.695312 0.980469 7.011719 1.042969 C 7.324219 1.105469 7.628906 1.199219 7.925781 1.320312 C 8.21875 1.445312 8.5 1.59375 8.765625 1.769531 C 9.035156 1.949219 9.28125 2.152344 9.507812 2.378906 C 9.730469 2.605469 9.933594 2.851562 10.113281 3.117188 C 10.289062 3.382812 10.441406 3.664062 10.5625 3.957031 C 10.683594 4.253906 10.777344 4.558594 10.839844 4.871094 C 10.902344 5.1875 10.933594 5.503906 10.933594 5.824219 Z M 10.933594 5.824219 " fill-opacity="1" fill-rule="nonzero"/></g></g></g></g><g fill="#6f779d" fill-opacity="1"><g transform="translate(57.846447, 192.546477)"><g><path d="M 6.84375 0 C 6.207031 0 5.65625 -0.222656 5.1875 -0.671875 C 4.726562 -1.117188 4.5 -1.675781 4.5 -2.34375 L 4.5 -32.8125 C 4.5 -33.46875 4.726562 -34.019531 5.1875 -34.46875 C 5.65625 -34.914062 6.207031 -35.140625 6.84375 -35.140625 C 7.5 -35.140625 8.050781 -34.914062 8.5 -34.46875 C 8.957031 -34.019531 9.1875 -33.46875 9.1875 -32.8125 L 9.1875 -19.3125 L 24.078125 -34.203125 C 24.429688 -34.554688 24.75 -34.800781 25.03125 -34.9375 C 25.320312 -35.070312 25.648438 -35.140625 26.015625 -35.140625 C 26.640625 -35.140625 27.125 -34.953125 27.46875 -34.578125 C 27.8125 -34.203125 27.984375 -33.742188 27.984375 -33.203125 C 27.984375 -32.429688 27.703125 -31.757812 27.140625 -31.1875 L 15.65625 -19.671875 L 27.359375 -3.734375 C 27.660156 -3.316406 27.8125 -2.835938 27.8125 -2.296875 C 27.8125 -1.691406 27.613281 -1.15625 27.21875 -0.6875 C 26.832031 -0.226562 26.335938 0 25.734375 0 C 24.898438 0 24.257812 -0.328125 23.8125 -0.984375 L 12.421875 -16.421875 L 9.1875 -13.1875 L 9.1875 -2.34375 C 9.1875 -1.675781 8.957031 -1.117188 8.5 -0.671875 C 8.050781 -0.222656 7.5 0 6.84375 0 Z M 6.84375 0 "/></g></g></g><g fill="#6f779d" fill-opacity="1"><g transform="translate(154.789228, 192.546477)"><g><path d="M 6.796875 0 C 6.140625 0 5.59375 -0.21875 5.15625 -0.65625 C 4.71875 -1.09375 4.5 -1.65625 4.5 -2.34375 L 4.5 -32.8125 C 4.5 -33.5 4.71875 -34.054688 5.15625 -34.484375 C 5.59375 -34.921875 6.140625 -35.140625 6.796875 -35.140625 C 7.128906 -35.140625 7.457031 -35.054688 7.78125 -34.890625 C 8.113281 -34.734375 8.382812 -34.535156 8.59375 -34.296875 L 28.21875 -8.1875 L 28.21875 -32.8125 C 28.21875 -33.5 28.441406 -34.054688 28.890625 -34.484375 C 29.335938 -34.921875 29.894531 -35.140625 30.5625 -35.140625 C 31.21875 -35.140625 31.757812 -34.921875 32.1875 -34.484375 C 32.625 -34.054688 32.84375 -33.5 32.84375 -32.8125 L 32.84375 -2.34375 C 32.84375 -1.65625 32.625 -1.09375 32.1875 -0.65625 C 31.757812 -0.21875 31.21875 0 30.5625 0 C 30.226562 0 29.890625 -0.0664062 29.546875 -0.203125 C 29.203125 -0.335938 28.9375 -0.539062 28.75 -0.8125 L 9.140625 -26.90625 L 9.140625 -2.34375 C 9.140625 -1.675781 8.921875 -1.117188 8.484375 -0.671875 C 8.046875 -0.222656 7.484375 0 6.796875 0 Z M 6.796875 0 "/></g></g></g><g fill="#6f779d" fill-opacity="1"><g transform="translate(192.139193, 192.546477)"><g><path d="M 6.796875 0 C 6.140625 0 5.59375 -0.21875 5.15625 -0.65625 C 4.71875 -1.09375 4.5 -1.65625 4.5 -2.34375 L 4.5 -32.8125 C 4.5 -33.5 4.71875 -34.054688 5.15625 -34.484375 C 5.59375 -34.921875 6.140625 -35.140625 6.796875 -35.140625 C 7.128906 -35.140625 7.457031 -35.054688 7.78125 -34.890625 C 8.113281 -34.734375 8.382812 -34.535156 8.59375 -34.296875 L 28.21875 -8.1875 L 28.21875 -32.8125 C 28.21875 -33.5 28.441406 -34.054688 28.890625 -34.484375 C 29.335938 -34.921875 29.894531 -35.140625 30.5625 -35.140625 C 31.21875 -35.140625 31.757812 -34.921875 32.1875 -34.484375 C 32.625 -34.054688 32.84375 -33.5 32.84375 -32.8125 L 32.84375 -2.34375 C 32.84375 -1.65625 32.625 -1.09375 32.1875 -0.65625 C 31.757812 -0.21875 31.21875 0 30.5625 0 C 30.226562 0 29.890625 -0.0664062 29.546875 -0.203125 C 29.203125 -0.335938 28.9375 -0.539062 28.75 -0.8125 L 9.140625 -26.90625 L 9.140625 -2.34375 C 9.140625 -1.675781 8.921875 -1.117188 8.484375 -0.671875 C 8.046875 -0.222656 7.484375 0 6.796875 0 Z M 6.796875 0 "/></g></g></g><g fill="#6f779d" fill-opacity="1"><g transform="translate(229.489159, 192.546477)"><g><path d="M 6.84375 0 C 6.175781 0 5.617188 -0.222656 5.171875 -0.671875 C 4.722656 -1.117188 4.5 -1.675781 4.5 -2.34375 L 4.5 -32.8125 C 4.5 -33.5 4.722656 -34.054688 5.171875 -34.484375 C 5.617188 -34.921875 6.175781 -35.140625 6.84375 -35.140625 L 27.1875 -35.140625 C 27.875 -35.140625 28.425781 -34.9375 28.84375 -34.53125 C 29.257812 -34.132812 29.46875 -33.601562 29.46875 -32.9375 C 29.46875 -32.3125 29.257812 -31.800781 28.84375 -31.40625 C 28.425781 -31.019531 27.875 -30.828125 27.1875 -30.828125 L 9.1875 -30.828125 L 9.1875 -19.890625 L 22.09375 -19.890625 C 22.75 -19.890625 23.296875 -19.6875 23.734375 -19.28125 C 24.171875 -18.875 24.390625 -18.359375 24.390625 -17.734375 C 24.390625 -17.097656 24.171875 -16.578125 23.734375 -16.171875 C 23.296875 -15.765625 22.75 -15.5625 22.09375 -15.5625 L 9.1875 -15.5625 L 9.1875 -4.3125 L 27.1875 -4.3125 C 27.875 -4.3125 28.425781 -4.117188 28.84375 -3.734375 C 29.257812 -3.347656 29.46875 -2.835938 29.46875 -2.203125 C 29.46875 -1.546875 29.257812 -1.015625 28.84375 -0.609375 C 28.425781 -0.203125 27.875 0 27.1875 0 Z M 6.84375 0 "/></g></g></g><g fill="#6f779d" fill-opacity="1"><g transform="translate(260.989122, 192.546477)"><g><path d="M 29.5625 -3.78125 C 29.894531 -3.300781 30.0625 -2.789062 30.0625 -2.25 C 30.0625 -1.644531 29.863281 -1.117188 29.46875 -0.671875 C 29.082031 -0.222656 28.5625 0 27.90625 0 C 27.15625 0 26.550781 -0.285156 26.09375 -0.859375 L 16.328125 -14.40625 L 5.984375 -0.671875 C 5.535156 -0.222656 4.992188 0 4.359375 0 C 3.703125 0 3.1875 -0.207031 2.8125 -0.625 C 2.4375 -1.050781 2.25 -1.5625 2.25 -2.15625 C 2.25 -2.757812 2.429688 -3.300781 2.796875 -3.78125 L 13.28125 -17.734375 L 3.375 -31.453125 C 3.070312 -31.847656 2.921875 -32.3125 2.921875 -32.84375 C 2.921875 -33.476562 3.113281 -34.019531 3.5 -34.46875 C 3.894531 -34.914062 4.421875 -35.140625 5.078125 -35.140625 C 5.859375 -35.140625 6.414062 -34.914062 6.75 -34.46875 L 16.421875 -21.0625 L 26.5 -34.46875 C 26.925781 -34.914062 27.484375 -35.140625 28.171875 -35.140625 C 28.796875 -35.140625 29.296875 -34.929688 29.671875 -34.515625 C 30.046875 -34.097656 30.234375 -33.585938 30.234375 -32.984375 C 30.234375 -32.472656 30.070312 -31.960938 29.75 -31.453125 L 19.484375 -17.78125 Z M 29.5625 -3.78125 "/></g></g></g><g fill="#6f779d" fill-opacity="1"><g transform="translate(293.209091, 192.546477)"><g><path d="M 29.5625 -3.78125 C 29.894531 -3.300781 30.0625 -2.789062 30.0625 -2.25 C 30.0625 -1.644531 29.863281 -1.117188 29.46875 -0.671875 C 29.082031 -0.222656 28.5625 0 27.90625 0 C 27.15625 0 26.550781 -0.285156 26.09375 -0.859375 L 16.328125 -14.40625 L 5.984375 -0.671875 C 5.535156 -0.222656 4.992188 0 4.359375 0 C 3.703125 0 3.1875 -0.207031 2.8125 -0.625 C 2.4375 -1.050781 2.25 -1.5625 2.25 -2.15625 C 2.25 -2.757812 2.429688 -3.300781 2.796875 -3.78125 L 13.28125 -17.734375 L 3.375 -31.453125 C 3.070312 -31.847656 2.921875 -32.3125 2.921875 -32.84375 C 2.921875 -33.476562 3.113281 -34.019531 3.5 -34.46875 C 3.894531 -34.914062 4.421875 -35.140625 5.078125 -35.140625 C 5.859375 -35.140625 6.414062 -34.914062 6.75 -34.46875 L 16.421875 -21.0625 L 26.5 -34.46875 C 26.925781 -34.914062 27.484375 -35.140625 28.171875 -35.140625 C 28.796875 -35.140625 29.296875 -34.929688 29.671875 -34.515625 C 30.046875 -34.097656 30.234375 -33.585938 30.234375 -32.984375 C 30.234375 -32.472656 30.070312 -31.960938 29.75 -31.453125 L 19.484375 -17.78125 Z M 29.5625 -3.78125 "/></g></g></g><g fill="#6f779d" fill-opacity="1"><g transform="translate(325.429059, 192.546477)"><g><path d="M 30.78125 -3.28125 C 30.925781 -2.894531 31 -2.566406 31 -2.296875 C 31 -1.660156 30.773438 -1.117188 30.328125 -0.671875 C 29.878906 -0.222656 29.328125 0 28.671875 0 C 28.210938 0 27.78125 -0.125 27.375 -0.375 C 26.976562 -0.632812 26.6875 -0.988281 26.5 -1.4375 L 23.984375 -7.734375 L 7.828125 -7.734375 L 5.265625 -1.4375 C 5.054688 -0.988281 4.753906 -0.632812 4.359375 -0.375 C 3.972656 -0.125 3.554688 0 3.109375 0 C 2.441406 0 1.890625 -0.226562 1.453125 -0.6875 C 1.023438 -1.15625 0.8125 -1.707031 0.8125 -2.34375 C 0.8125 -2.644531 0.882812 -2.988281 1.03125 -3.375 L 13.6875 -33.5625 C 14.132812 -34.613281 14.867188 -35.140625 15.890625 -35.140625 C 16.960938 -35.140625 17.695312 -34.613281 18.09375 -33.5625 Z M 9.40625 -11.609375 L 22.40625 -11.609375 L 15.96875 -27.625 Z M 9.40625 -11.609375 "/></g></g></g><g fill="#6f779d" fill-opacity="1"><g transform="translate(256.027224, 214.700638)"><g><path d="M 1.515625 0 C 1.367188 0 1.242188 -0.046875 1.140625 -0.140625 C 1.046875 -0.242188 1 -0.367188 1 -0.515625 L 1 -7.296875 C 1 -7.453125 1.046875 -7.578125 1.140625 -7.671875 C 1.242188 -7.773438 1.367188 -7.828125 1.515625 -7.828125 L 3.921875 -7.828125 C 4.367188 -7.828125 4.765625 -7.738281 5.109375 -7.5625 C 5.453125 -7.382812 5.722656 -7.132812 5.921875 -6.8125 C 6.117188 -6.5 6.21875 -6.140625 6.21875 -5.734375 C 6.21875 -5.410156 6.128906 -5.117188 5.953125 -4.859375 C 5.773438 -4.597656 5.535156 -4.390625 5.234375 -4.234375 C 5.679688 -4.117188 6.035156 -3.898438 6.296875 -3.578125 C 6.554688 -3.265625 6.6875 -2.859375 6.6875 -2.359375 C 6.6875 -1.910156 6.578125 -1.503906 6.359375 -1.140625 C 6.148438 -0.773438 5.847656 -0.492188 5.453125 -0.296875 C 5.066406 -0.0976562 4.625 0 4.125 0 Z M 3.921875 -4.609375 C 4.304688 -4.609375 4.617188 -4.703125 4.859375 -4.890625 C 5.097656 -5.085938 5.21875 -5.367188 5.21875 -5.734375 C 5.21875 -6.109375 5.097656 -6.390625 4.859375 -6.578125 C 4.617188 -6.765625 4.304688 -6.859375 3.921875 -6.859375 L 2.046875 -6.859375 L 2.046875 -4.609375 Z M 4.125 -0.96875 C 4.59375 -0.96875 4.96875 -1.085938 5.25 -1.328125 C 5.539062 -1.566406 5.6875 -1.910156 5.6875 -2.359375 C 5.6875 -2.773438 5.546875 -3.09375 5.265625 -3.3125 C 4.984375 -3.53125 4.601562 -3.640625 4.125 -3.640625 L 2.046875 -3.640625 L 2.046875 -0.96875 Z M 4.125 -0.96875 "/></g></g></g><g fill="#6f779d" fill-opacity="1"><g transform="translate(263.266105, 214.700638)"><g><path d="M 4.28125 0.15625 C 3.644531 0.15625 3.078125 0.0390625 2.578125 -0.1875 C 2.078125 -0.425781 1.6875 -0.753906 1.40625 -1.171875 C 1.132812 -1.597656 1 -2.082031 1 -2.625 L 1 -7.296875 C 1 -7.453125 1.046875 -7.578125 1.140625 -7.671875 C 1.242188 -7.773438 1.367188 -7.828125 1.515625 -7.828125 C 1.671875 -7.828125 1.796875 -7.773438 1.890625 -7.671875 C 1.992188 -7.578125 2.046875 -7.453125 2.046875 -7.296875 L 2.046875 -2.625 C 2.046875 -2.269531 2.140625 -1.953125 2.328125 -1.671875 C 2.515625 -1.390625 2.773438 -1.171875 3.109375 -1.015625 C 3.453125 -0.859375 3.84375 -0.78125 4.28125 -0.78125 C 4.6875 -0.78125 5.050781 -0.859375 5.375 -1.015625 C 5.707031 -1.171875 5.96875 -1.390625 6.15625 -1.671875 C 6.34375 -1.953125 6.4375 -2.269531 6.4375 -2.625 L 6.4375 -7.296875 C 6.4375 -7.453125 6.484375 -7.578125 6.578125 -7.671875 C 6.679688 -7.773438 6.804688 -7.828125 6.953125 -7.828125 C 7.097656 -7.828125 7.21875 -7.773438 7.3125 -7.671875 C 7.414062 -7.578125 7.46875 -7.453125 7.46875 -7.296875 L 7.46875 -2.625 C 7.46875 -2.09375 7.332031 -1.613281 7.0625 -1.1875 C 6.789062 -0.757812 6.410156 -0.425781 5.921875 -0.1875 C 5.441406 0.0390625 4.894531 0.15625 4.28125 0.15625 Z M 4.28125 0.15625 "/></g></g></g><g fill="#6f779d" fill-opacity="1"><g transform="translate(271.726482, 214.700638)"><g><path d="M 3.484375 0.09375 C 2.835938 0.09375 2.25 -0.0507812 1.71875 -0.34375 C 1.1875 -0.632812 0.820312 -1.019531 0.625 -1.5 C 0.59375 -1.570312 0.578125 -1.632812 0.578125 -1.6875 C 0.578125 -1.789062 0.613281 -1.878906 0.6875 -1.953125 C 0.757812 -2.035156 0.859375 -2.085938 0.984375 -2.109375 C 1.003906 -2.117188 1.035156 -2.125 1.078125 -2.125 C 1.179688 -2.125 1.28125 -2.09375 1.375 -2.03125 C 1.476562 -1.96875 1.554688 -1.878906 1.609375 -1.765625 C 1.722656 -1.503906 1.957031 -1.285156 2.3125 -1.109375 C 2.664062 -0.929688 3.054688 -0.84375 3.484375 -0.84375 C 3.984375 -0.84375 4.40625 -0.957031 4.75 -1.1875 C 5.101562 -1.414062 5.28125 -1.734375 5.28125 -2.140625 C 5.28125 -2.515625 5.128906 -2.835938 4.828125 -3.109375 C 4.535156 -3.378906 4.09375 -3.546875 3.5 -3.609375 C 2.664062 -3.679688 2.007812 -3.921875 1.53125 -4.328125 C 1.0625 -4.734375 0.828125 -5.238281 0.828125 -5.84375 C 0.828125 -6.269531 0.945312 -6.640625 1.1875 -6.953125 C 1.4375 -7.265625 1.769531 -7.5 2.1875 -7.65625 C 2.613281 -7.820312 3.09375 -7.90625 3.625 -7.90625 C 4.195312 -7.90625 4.679688 -7.789062 5.078125 -7.5625 C 5.472656 -7.332031 5.804688 -7 6.078125 -6.5625 C 6.160156 -6.4375 6.203125 -6.316406 6.203125 -6.203125 C 6.203125 -6.054688 6.132812 -5.9375 6 -5.84375 C 5.925781 -5.789062 5.835938 -5.765625 5.734375 -5.765625 C 5.640625 -5.765625 5.546875 -5.789062 5.453125 -5.84375 C 5.367188 -5.894531 5.304688 -5.960938 5.265625 -6.046875 C 5.078125 -6.347656 4.847656 -6.578125 4.578125 -6.734375 C 4.304688 -6.890625 3.96875 -6.96875 3.5625 -6.96875 C 3.050781 -6.96875 2.640625 -6.867188 2.328125 -6.671875 C 2.015625 -6.472656 1.859375 -6.1875 1.859375 -5.8125 C 1.859375 -5.46875 1.992188 -5.175781 2.265625 -4.9375 C 2.546875 -4.707031 3.050781 -4.554688 3.78125 -4.484375 C 4.582031 -4.398438 5.203125 -4.15625 5.640625 -3.75 C 6.078125 -3.351562 6.296875 -2.820312 6.296875 -2.15625 C 6.296875 -1.675781 6.164062 -1.265625 5.90625 -0.921875 C 5.644531 -0.578125 5.300781 -0.320312 4.875 -0.15625 C 4.445312 0.0078125 3.984375 0.09375 3.484375 0.09375 Z M 3.484375 0.09375 "/></g></g></g><g fill="#6f779d" fill-opacity="1"><g transform="translate(278.614928, 214.700638)"><g><path d="M 1.515625 0 C 1.367188 0 1.242188 -0.046875 1.140625 -0.140625 C 1.046875 -0.242188 1 -0.367188 1 -0.515625 L 1 -7.296875 C 1 -7.453125 1.046875 -7.578125 1.140625 -7.671875 C 1.242188 -7.773438 1.367188 -7.828125 1.515625 -7.828125 C 1.671875 -7.828125 1.796875 -7.773438 1.890625 -7.671875 C 1.992188 -7.578125 2.046875 -7.453125 2.046875 -7.296875 L 2.046875 -0.515625 C 2.046875 -0.367188 1.992188 -0.242188 1.890625 -0.140625 C 1.796875 -0.046875 1.671875 0 1.515625 0 Z M 1.515625 0 "/></g></g></g><g fill="#6f779d" fill-opacity="1"><g transform="translate(281.658658, 214.700638)"><g><path d="M 1.515625 0 C 1.367188 0 1.242188 -0.046875 1.140625 -0.140625 C 1.046875 -0.242188 1 -0.367188 1 -0.515625 L 1 -7.296875 C 1 -7.453125 1.046875 -7.578125 1.140625 -7.671875 C 1.242188 -7.773438 1.367188 -7.828125 1.515625 -7.828125 C 1.585938 -7.828125 1.660156 -7.804688 1.734375 -7.765625 C 1.804688 -7.734375 1.863281 -7.6875 1.90625 -7.625 L 6.28125 -1.828125 L 6.28125 -7.296875 C 6.28125 -7.453125 6.328125 -7.578125 6.421875 -7.671875 C 6.523438 -7.773438 6.648438 -7.828125 6.796875 -7.828125 C 6.941406 -7.828125 7.0625 -7.773438 7.15625 -7.671875 C 7.257812 -7.578125 7.3125 -7.453125 7.3125 -7.296875 L 7.3125 -0.515625 C 7.3125 -0.367188 7.257812 -0.242188 7.15625 -0.140625 C 7.0625 -0.046875 6.941406 0 6.796875 0 C 6.722656 0 6.644531 -0.015625 6.5625 -0.046875 C 6.488281 -0.078125 6.4375 -0.125 6.40625 -0.1875 L 2.03125 -5.984375 L 2.03125 -0.515625 C 2.03125 -0.367188 1.984375 -0.242188 1.890625 -0.140625 C 1.796875 -0.046875 1.671875 0 1.515625 0 Z M 1.515625 0 "/></g></g></g><g fill="#6f779d" fill-opacity="1"><g transform="translate(289.968845, 214.700638)"><g><path d="M 1.515625 0 C 1.367188 0 1.242188 -0.046875 1.140625 -0.140625 C 1.046875 -0.242188 1 -0.367188 1 -0.515625 L 1 -7.296875 C 1 -7.453125 1.046875 -7.578125 1.140625 -7.671875 C 1.242188 -7.773438 1.367188 -7.828125 1.515625 -7.828125 L 6.046875 -7.828125 C 6.203125 -7.828125 6.328125 -7.78125 6.421875 -7.6875 C 6.515625 -7.59375 6.5625 -7.472656 6.5625 -7.328125 C 6.5625 -7.191406 6.515625 -7.078125 6.421875 -6.984375 C 6.328125 -6.898438 6.203125 -6.859375 6.046875 -6.859375 L 2.046875 -6.859375 L 2.046875 -4.421875 L 4.921875 -4.421875 C 5.066406 -4.421875 5.1875 -4.375 5.28125 -4.28125 C 5.375 -4.195312 5.421875 -4.085938 5.421875 -3.953125 C 5.421875 -3.804688 5.375 -3.6875 5.28125 -3.59375 C 5.1875 -3.507812 5.066406 -3.46875 4.921875 -3.46875 L 2.046875 -3.46875 L 2.046875 -0.96875 L 6.046875 -0.96875 C 6.203125 -0.96875 6.328125 -0.921875 6.421875 -0.828125 C 6.515625 -0.742188 6.5625 -0.628906 6.5625 -0.484375 C 6.5625 -0.335938 6.515625 -0.21875 6.421875 -0.125 C 6.328125 -0.0390625 6.203125 0 6.046875 0 Z M 1.515625 0 "/></g></g></g><g fill="#6f779d" fill-opacity="1"><g transform="translate(296.977442, 214.700638)"><g><path d="M 3.484375 0.09375 C 2.835938 0.09375 2.25 -0.0507812 1.71875 -0.34375 C 1.1875 -0.632812 0.820312 -1.019531 0.625 -1.5 C 0.59375 -1.570312 0.578125 -1.632812 0.578125 -1.6875 C 0.578125 -1.789062 0.613281 -1.878906 0.6875 -1.953125 C 0.757812 -2.035156 0.859375 -2.085938 0.984375 -2.109375 C 1.003906 -2.117188 1.035156 -2.125 1.078125 -2.125 C 1.179688 -2.125 1.28125 -2.09375 1.375 -2.03125 C 1.476562 -1.96875 1.554688 -1.878906 1.609375 -1.765625 C 1.722656 -1.503906 1.957031 -1.285156 2.3125 -1.109375 C 2.664062 -0.929688 3.054688 -0.84375 3.484375 -0.84375 C 3.984375 -0.84375 4.40625 -0.957031 4.75 -1.1875 C 5.101562 -1.414062 5.28125 -1.734375 5.28125 -2.140625 C 5.28125 -2.515625 5.128906 -2.835938 4.828125 -3.109375 C 4.535156 -3.378906 4.09375 -3.546875 3.5 -3.609375 C 2.664062 -3.679688 2.007812 -3.921875 1.53125 -4.328125 C 1.0625 -4.734375 0.828125 -5.238281 0.828125 -5.84375 C 0.828125 -6.269531 0.945312 -6.640625 1.1875 -6.953125 C 1.4375 -7.265625 1.769531 -7.5 2.1875 -7.65625 C 2.613281 -7.820312 3.09375 -7.90625 3.625 -7.90625 C 4.195312 -7.90625 4.679688 -7.789062 5.078125 -7.5625 C 5.472656 -7.332031 5.804688 -7 6.078125 -6.5625 C 6.160156 -6.4375 6.203125 -6.316406 6.203125 -6.203125 C 6.203125 -6.054688 6.132812 -5.9375 6 -5.84375 C 5.925781 -5.789062 5.835938 -5.765625 5.734375 -5.765625 C 5.640625 -5.765625 5.546875 -5.789062 5.453125 -5.84375 C 5.367188 -5.894531 5.304688 -5.960938 5.265625 -6.046875 C 5.078125 -6.347656 4.847656 -6.578125 4.578125 -6.734375 C 4.304688 -6.890625 3.96875 -6.96875 3.5625 -6.96875 C 3.050781 -6.96875 2.640625 -6.867188 2.328125 -6.671875 C 2.015625 -6.472656 1.859375 -6.1875 1.859375 -5.8125 C 1.859375 -5.46875 1.992188 -5.175781 2.265625 -4.9375 C 2.546875 -4.707031 3.050781 -4.554688 3.78125 -4.484375 C 4.582031 -4.398438 5.203125 -4.15625 5.640625 -3.75 C 6.078125 -3.351562 6.296875 -2.820312 6.296875 -2.15625 C 6.296875 -1.675781 6.164062 -1.265625 5.90625 -0.921875 C 5.644531 -0.578125 5.300781 -0.320312 4.875 -0.15625 C 4.445312 0.0078125 3.984375 0.09375 3.484375 0.09375 Z M 3.484375 0.09375 "/></g></g></g><g fill="#6f779d" fill-opacity="1"><g transform="translate(303.865887, 214.700638)"><g><path d="M 3.484375 0.09375 C 2.835938 0.09375 2.25 -0.0507812 1.71875 -0.34375 C 1.1875 -0.632812 0.820312 -1.019531 0.625 -1.5 C 0.59375 -1.570312 0.578125 -1.632812 0.578125 -1.6875 C 0.578125 -1.789062 0.613281 -1.878906 0.6875 -1.953125 C 0.757812 -2.035156 0.859375 -2.085938 0.984375 -2.109375 C 1.003906 -2.117188 1.035156 -2.125 1.078125 -2.125 C 1.179688 -2.125 1.28125 -2.09375 1.375 -2.03125 C 1.476562 -1.96875 1.554688 -1.878906 1.609375 -1.765625 C 1.722656 -1.503906 1.957031 -1.285156 2.3125 -1.109375 C 2.664062 -0.929688 3.054688 -0.84375 3.484375 -0.84375 C 3.984375 -0.84375 4.40625 -0.957031 4.75 -1.1875 C 5.101562 -1.414062 5.28125 -1.734375 5.28125 -2.140625 C 5.28125 -2.515625 5.128906 -2.835938 4.828125 -3.109375 C 4.535156 -3.378906 4.09375 -3.546875 3.5 -3.609375 C 2.664062 -3.679688 2.007812 -3.921875 1.53125 -4.328125 C 1.0625 -4.734375 0.828125 -5.238281 0.828125 -5.84375 C 0.828125 -6.269531 0.945312 -6.640625 1.1875 -6.953125 C 1.4375 -7.265625 1.769531 -7.5 2.1875 -7.65625 C 2.613281 -7.820312 3.09375 -7.90625 3.625 -7.90625 C 4.195312 -7.90625 4.679688 -7.789062 5.078125 -7.5625 C 5.472656 -7.332031 5.804688 -7 6.078125 -6.5625 C 6.160156 -6.4375 6.203125 -6.316406 6.203125 -6.203125 C 6.203125 -6.054688 6.132812 -5.9375 6 -5.84375 C 5.925781 -5.789062 5.835938 -5.765625 5.734375 -5.765625 C 5.640625 -5.765625 5.546875 -5.789062 5.453125 -5.84375 C 5.367188 -5.894531 5.304688 -5.960938 5.265625 -6.046875 C 5.078125 -6.347656 4.847656 -6.578125 4.578125 -6.734375 C 4.304688 -6.890625 3.96875 -6.96875 3.5625 -6.96875 C 3.050781 -6.96875 2.640625 -6.867188 2.328125 -6.671875 C 2.015625 -6.472656 1.859375 -6.1875 1.859375 -5.8125 C 1.859375 -5.46875 1.992188 -5.175781 2.265625 -4.9375 C 2.546875 -4.707031 3.050781 -4.554688 3.78125 -4.484375 C 4.582031 -4.398438 5.203125 -4.15625 5.640625 -3.75 C 6.078125 -3.351562 6.296875 -2.820312 6.296875 -2.15625 C 6.296875 -1.675781 6.164062 -1.265625 5.90625 -0.921875 C 5.644531 -0.578125 5.300781 -0.320312 4.875 -0.15625 C 4.445312 0.0078125 3.984375 0.09375 3.484375 0.09375 Z M 3.484375 0.09375 "/></g></g></g><g fill="#6f779d" fill-opacity="1"><g transform="translate(310.754332, 214.700638)"><g/></g></g><g fill="#6f779d" fill-opacity="1"><g transform="translate(313.68793, 214.700638)"><g><path d="M 1.515625 0 C 1.367188 0 1.242188 -0.046875 1.140625 -0.140625 C 1.046875 -0.242188 1 -0.367188 1 -0.515625 L 1 -7.296875 C 1 -7.453125 1.046875 -7.578125 1.140625 -7.671875 C 1.242188 -7.773438 1.367188 -7.828125 1.515625 -7.828125 C 1.585938 -7.828125 1.660156 -7.804688 1.734375 -7.765625 C 1.804688 -7.734375 1.863281 -7.6875 1.90625 -7.625 L 6.28125 -1.828125 L 6.28125 -7.296875 C 6.28125 -7.453125 6.328125 -7.578125 6.421875 -7.671875 C 6.523438 -7.773438 6.648438 -7.828125 6.796875 -7.828125 C 6.941406 -7.828125 7.0625 -7.773438 7.15625 -7.671875 C 7.257812 -7.578125 7.3125 -7.453125 7.3125 -7.296875 L 7.3125 -0.515625 C 7.3125 -0.367188 7.257812 -0.242188 7.15625 -0.140625 C 7.0625 -0.046875 6.941406 0 6.796875 0 C 6.722656 0 6.644531 -0.015625 6.5625 -0.046875 C 6.488281 -0.078125 6.4375 -0.125 6.40625 -0.1875 L 2.03125 -5.984375 L 2.03125 -0.515625 C 2.03125 -0.367188 1.984375 -0.242188 1.890625 -0.140625 C 1.796875 -0.046875 1.671875 0 1.515625 0 Z M 1.515625 0 "/></g></g></g><g fill="#6f779d" fill-opacity="1"><g transform="translate(321.998118, 214.700638)"><g><path d="M 1.515625 0 C 1.367188 0 1.242188 -0.046875 1.140625 -0.140625 C 1.046875 -0.242188 1 -0.367188 1 -0.515625 L 1 -7.296875 C 1 -7.453125 1.046875 -7.578125 1.140625 -7.671875 C 1.242188 -7.773438 1.367188 -7.828125 1.515625 -7.828125 L 6.046875 -7.828125 C 6.203125 -7.828125 6.328125 -7.78125 6.421875 -7.6875 C 6.515625 -7.59375 6.5625 -7.472656 6.5625 -7.328125 C 6.5625 -7.191406 6.515625 -7.078125 6.421875 -6.984375 C 6.328125 -6.898438 6.203125 -6.859375 6.046875 -6.859375 L 2.046875 -6.859375 L 2.046875 -4.421875 L 4.921875 -4.421875 C 5.066406 -4.421875 5.1875 -4.375 5.28125 -4.28125 C 5.375 -4.195312 5.421875 -4.085938 5.421875 -3.953125 C 5.421875 -3.804688 5.375 -3.6875 5.28125 -3.59375 C 5.1875 -3.507812 5.066406 -3.46875 4.921875 -3.46875 L 2.046875 -3.46875 L 2.046875 -0.96875 L 6.046875 -0.96875 C 6.203125 -0.96875 6.328125 -0.921875 6.421875 -0.828125 C 6.515625 -0.742188 6.5625 -0.628906 6.5625 -0.484375 C 6.5625 -0.335938 6.515625 -0.21875 6.421875 -0.125 C 6.328125 -0.0390625 6.203125 0 6.046875 0 Z M 1.515625 0 "/></g></g></g><g fill="#6f779d" fill-opacity="1"><g transform="translate(329.006715, 214.700638)"><g><path d="M 5.984375 -7.828125 C 6.128906 -7.828125 6.242188 -7.78125 6.328125 -7.6875 C 6.421875 -7.59375 6.46875 -7.476562 6.46875 -7.34375 C 6.46875 -7.195312 6.421875 -7.078125 6.328125 -6.984375 C 6.242188 -6.898438 6.128906 -6.859375 5.984375 -6.859375 L 3.84375 -6.859375 L 3.84375 -0.515625 C 3.84375 -0.367188 3.789062 -0.242188 3.6875 -0.140625 C 3.582031 -0.046875 3.457031 0 3.3125 0 C 3.164062 0 3.039062 -0.046875 2.9375 -0.140625 C 2.84375 -0.242188 2.796875 -0.367188 2.796875 -0.515625 L 2.796875 -6.859375 L 0.625 -6.859375 C 0.488281 -6.859375 0.375 -6.898438 0.28125 -6.984375 C 0.195312 -7.078125 0.15625 -7.195312 0.15625 -7.34375 C 0.15625 -7.476562 0.195312 -7.59375 0.28125 -7.6875 C 0.375 -7.78125 0.488281 -7.828125 0.625 -7.828125 Z M 5.984375 -7.828125 "/></g></g></g><g fill="#6f779d" fill-opacity="1"><g transform="translate(335.624829, 214.700638)"><g><path d="M 8.890625 -7.828125 C 9.015625 -7.828125 9.109375 -7.785156 9.171875 -7.703125 C 9.242188 -7.617188 9.28125 -7.507812 9.28125 -7.375 C 9.28125 -7.28125 9.269531 -7.1875 9.25 -7.09375 L 7.234375 -0.421875 C 7.179688 -0.296875 7.109375 -0.191406 7.015625 -0.109375 C 6.929688 -0.0351562 6.828125 0 6.703125 0 C 6.585938 0 6.484375 -0.0351562 6.390625 -0.109375 C 6.296875 -0.191406 6.226562 -0.289062 6.1875 -0.40625 L 4.703125 -6.1875 L 3.1875 -0.421875 C 3.132812 -0.296875 3.0625 -0.191406 2.96875 -0.109375 C 2.882812 -0.0351562 2.785156 0 2.671875 0 C 2.546875 0 2.4375 -0.0351562 2.34375 -0.109375 C 2.25 -0.179688 2.179688 -0.28125 2.140625 -0.40625 L 0.125 -7.09375 C 0.101562 -7.1875 0.09375 -7.28125 0.09375 -7.375 C 0.09375 -7.507812 0.128906 -7.617188 0.203125 -7.703125 C 0.285156 -7.785156 0.390625 -7.828125 0.515625 -7.828125 C 0.640625 -7.828125 0.742188 -7.789062 0.828125 -7.71875 C 0.921875 -7.65625 0.988281 -7.5625 1.03125 -7.4375 L 2.671875 -1.71875 L 4.1875 -7.375 C 4.21875 -7.46875 4.273438 -7.546875 4.359375 -7.609375 C 4.453125 -7.679688 4.5625 -7.71875 4.6875 -7.71875 C 4.800781 -7.71875 4.90625 -7.6875 5 -7.625 C 5.09375 -7.570312 5.148438 -7.488281 5.171875 -7.375 L 6.703125 -1.6875 L 8.375 -7.484375 C 8.40625 -7.597656 8.460938 -7.679688 8.546875 -7.734375 C 8.628906 -7.796875 8.742188 -7.828125 8.890625 -7.828125 Z M 8.890625 -7.828125 "/></g></g></g><g fill="#6f779d" fill-opacity="1"><g transform="translate(345.016341, 214.700638)"><g><path d="M 4.625 0.09375 C 3.84375 0.09375 3.148438 -0.0703125 2.546875 -0.40625 C 1.941406 -0.75 1.472656 -1.222656 1.140625 -1.828125 C 0.804688 -2.441406 0.640625 -3.140625 0.640625 -3.921875 C 0.640625 -4.691406 0.804688 -5.378906 1.140625 -5.984375 C 1.472656 -6.597656 1.941406 -7.070312 2.546875 -7.40625 C 3.148438 -7.75 3.84375 -7.921875 4.625 -7.921875 C 5.382812 -7.921875 6.066406 -7.75 6.671875 -7.40625 C 7.273438 -7.070312 7.742188 -6.597656 8.078125 -5.984375 C 8.421875 -5.378906 8.59375 -4.691406 8.59375 -3.921875 C 8.59375 -3.140625 8.421875 -2.441406 8.078125 -1.828125 C 7.742188 -1.222656 7.273438 -0.75 6.671875 -0.40625 C 6.078125 -0.0703125 5.394531 0.09375 4.625 0.09375 Z M 4.625 -0.84375 C 5.1875 -0.84375 5.691406 -0.976562 6.140625 -1.25 C 6.597656 -1.519531 6.953125 -1.890625 7.203125 -2.359375 C 7.460938 -2.828125 7.59375 -3.347656 7.59375 -3.921875 C 7.59375 -4.492188 7.460938 -5.015625 7.203125 -5.484375 C 6.953125 -5.953125 6.601562 -6.316406 6.15625 -6.578125 C 5.707031 -6.847656 5.195312 -6.984375 4.625 -6.984375 C 4.039062 -6.984375 3.523438 -6.847656 3.078125 -6.578125 C 2.628906 -6.316406 2.273438 -5.953125 2.015625 -5.484375 C 1.765625 -5.015625 1.640625 -4.492188 1.640625 -3.921875 C 1.640625 -3.347656 1.765625 -2.828125 2.015625 -2.359375 C 2.273438 -1.890625 2.628906 -1.519531 3.078125 -1.25 C 3.535156 -0.976562 4.050781 -0.84375 4.625 -0.84375 Z M 4.625 -0.84375 "/></g></g></g><g fill="#6f779d" fill-opacity="1"><g transform="translate(354.237646, 214.700638)"><g><path d="M 6.078125 -0.796875 C 6.148438 -0.691406 6.1875 -0.582031 6.1875 -0.46875 C 6.1875 -0.332031 6.140625 -0.21875 6.046875 -0.125 C 5.953125 -0.0390625 5.828125 0 5.671875 0 C 5.484375 0 5.335938 -0.0820312 5.234375 -0.25 L 3.5 -3.015625 L 2.046875 -3.015625 L 2.046875 -0.515625 C 2.046875 -0.367188 1.992188 -0.242188 1.890625 -0.140625 C 1.796875 -0.046875 1.671875 0 1.515625 0 C 1.367188 0 1.242188 -0.046875 1.140625 -0.140625 C 1.046875 -0.242188 1 -0.367188 1 -0.515625 L 1 -7.296875 C 1 -7.453125 1.046875 -7.578125 1.140625 -7.671875 C 1.242188 -7.773438 1.367188 -7.828125 1.515625 -7.828125 L 3.328125 -7.828125 C 3.816406 -7.828125 4.253906 -7.722656 4.640625 -7.515625 C 5.035156 -7.304688 5.34375 -7.015625 5.5625 -6.640625 C 5.78125 -6.265625 5.890625 -5.835938 5.890625 -5.359375 C 5.890625 -4.878906 5.769531 -4.457031 5.53125 -4.09375 C 5.289062 -3.726562 4.960938 -3.453125 4.546875 -3.265625 Z M 3.328125 -3.96875 C 3.773438 -3.96875 4.144531 -4.097656 4.4375 -4.359375 C 4.738281 -4.617188 4.890625 -4.953125 4.890625 -5.359375 C 4.890625 -5.796875 4.738281 -6.15625 4.4375 -6.4375 C 4.144531 -6.71875 3.773438 -6.859375 3.328125 -6.859375 L 2.046875 -6.859375 L 2.046875 -3.96875 Z M 3.328125 -3.96875 "/></g></g></g><g fill="#6f779d" fill-opacity="1"><g transform="translate(360.56541, 214.700638)"><g><path d="M 1.515625 0 C 1.378906 0 1.257812 -0.046875 1.15625 -0.140625 C 1.050781 -0.242188 1 -0.367188 1 -0.515625 L 1 -7.296875 C 1 -7.441406 1.050781 -7.566406 1.15625 -7.671875 C 1.257812 -7.773438 1.378906 -7.828125 1.515625 -7.828125 C 1.671875 -7.828125 1.796875 -7.773438 1.890625 -7.671875 C 1.992188 -7.566406 2.046875 -7.441406 2.046875 -7.296875 L 2.046875 -4.296875 L 5.359375 -7.609375 C 5.441406 -7.691406 5.515625 -7.75 5.578125 -7.78125 C 5.640625 -7.8125 5.710938 -7.828125 5.796875 -7.828125 C 5.929688 -7.828125 6.035156 -7.785156 6.109375 -7.703125 C 6.191406 -7.617188 6.234375 -7.515625 6.234375 -7.390625 C 6.234375 -7.210938 6.171875 -7.0625 6.046875 -6.9375 L 3.484375 -4.375 L 6.09375 -0.828125 C 6.15625 -0.734375 6.1875 -0.628906 6.1875 -0.515625 C 6.1875 -0.378906 6.140625 -0.257812 6.046875 -0.15625 C 5.960938 -0.0507812 5.859375 0 5.734375 0 C 5.546875 0 5.398438 -0.0703125 5.296875 -0.21875 L 2.765625 -3.65625 L 2.046875 -2.9375 L 2.046875 -0.515625 C 2.046875 -0.367188 1.992188 -0.242188 1.890625 -0.140625 C 1.796875 -0.046875 1.671875 0 1.515625 0 Z M 1.515625 0 "/></g></g></g><g fill="#6f779d" fill-opacity="1"><g transform="translate(256.027224, 228.4958)"><g><path d="M 4.5 0.09375 C 3.789062 0.09375 3.140625 -0.0820312 2.546875 -0.4375 C 1.953125 -0.789062 1.484375 -1.269531 1.140625 -1.875 C 0.804688 -2.488281 0.640625 -3.171875 0.640625 -3.921875 C 0.640625 -4.648438 0.804688 -5.316406 1.140625 -5.921875 C 1.484375 -6.535156 1.953125 -7.019531 2.546875 -7.375 C 3.140625 -7.738281 3.789062 -7.921875 4.5 -7.921875 C 5.007812 -7.921875 5.445312 -7.851562 5.8125 -7.71875 C 6.1875 -7.582031 6.566406 -7.363281 6.953125 -7.0625 C 7.035156 -7 7.085938 -6.9375 7.109375 -6.875 C 7.140625 -6.8125 7.15625 -6.738281 7.15625 -6.65625 C 7.15625 -6.519531 7.101562 -6.40625 7 -6.3125 C 6.90625 -6.226562 6.796875 -6.1875 6.671875 -6.1875 C 6.546875 -6.1875 6.425781 -6.226562 6.3125 -6.3125 C 6.039062 -6.550781 5.773438 -6.722656 5.515625 -6.828125 C 5.253906 -6.929688 4.914062 -6.984375 4.5 -6.984375 C 3.976562 -6.984375 3.5 -6.84375 3.0625 -6.5625 C 2.625 -6.289062 2.273438 -5.921875 2.015625 -5.453125 C 1.765625 -4.984375 1.640625 -4.472656 1.640625 -3.921875 C 1.640625 -3.359375 1.765625 -2.84375 2.015625 -2.375 C 2.273438 -1.90625 2.625 -1.53125 3.0625 -1.25 C 3.5 -0.976562 3.976562 -0.84375 4.5 -0.84375 C 5.144531 -0.84375 5.757812 -1.066406 6.34375 -1.515625 C 6.457031 -1.585938 6.570312 -1.625 6.6875 -1.625 C 6.8125 -1.625 6.914062 -1.578125 7 -1.484375 C 7.082031 -1.398438 7.125 -1.285156 7.125 -1.140625 C 7.125 -1.003906 7.066406 -0.878906 6.953125 -0.765625 C 6.234375 -0.191406 5.414062 0.09375 4.5 0.09375 Z M 4.5 0.09375 "/></g></g></g><g fill="#6f779d" fill-opacity="1"><g transform="translate(263.806768, 228.4958)"><g><path d="M 4.625 0.09375 C 3.84375 0.09375 3.148438 -0.0703125 2.546875 -0.40625 C 1.941406 -0.75 1.472656 -1.222656 1.140625 -1.828125 C 0.804688 -2.441406 0.640625 -3.140625 0.640625 -3.921875 C 0.640625 -4.691406 0.804688 -5.378906 1.140625 -5.984375 C 1.472656 -6.597656 1.941406 -7.070312 2.546875 -7.40625 C 3.148438 -7.75 3.84375 -7.921875 4.625 -7.921875 C 5.382812 -7.921875 6.066406 -7.75 6.671875 -7.40625 C 7.273438 -7.070312 7.742188 -6.597656 8.078125 -5.984375 C 8.421875 -5.378906 8.59375 -4.691406 8.59375 -3.921875 C 8.59375 -3.140625 8.421875 -2.441406 8.078125 -1.828125 C 7.742188 -1.222656 7.273438 -0.75 6.671875 -0.40625 C 6.078125 -0.0703125 5.394531 0.09375 4.625 0.09375 Z M 4.625 -0.84375 C 5.1875 -0.84375 5.691406 -0.976562 6.140625 -1.25 C 6.597656 -1.519531 6.953125 -1.890625 7.203125 -2.359375 C 7.460938 -2.828125 7.59375 -3.347656 7.59375 -3.921875 C 7.59375 -4.492188 7.460938 -5.015625 7.203125 -5.484375 C 6.953125 -5.953125 6.601562 -6.316406 6.15625 -6.578125 C 5.707031 -6.847656 5.195312 -6.984375 4.625 -6.984375 C 4.039062 -6.984375 3.523438 -6.847656 3.078125 -6.578125 C 2.628906 -6.316406 2.273438 -5.953125 2.015625 -5.484375 C 1.765625 -5.015625 1.640625 -4.492188 1.640625 -3.921875 C 1.640625 -3.347656 1.765625 -2.828125 2.015625 -2.359375 C 2.273438 -1.890625 2.628906 -1.519531 3.078125 -1.25 C 3.535156 -0.976562 4.050781 -0.84375 4.625 -0.84375 Z M 4.625 -0.84375 "/></g></g></g><g fill="#6f779d" fill-opacity="1"><g transform="translate(273.028072, 228.4958)"><g><path d="M 1.515625 0 C 1.367188 0 1.242188 -0.046875 1.140625 -0.140625 C 1.046875 -0.242188 1 -0.367188 1 -0.515625 L 1 -7.296875 C 1 -7.453125 1.046875 -7.578125 1.140625 -7.671875 C 1.242188 -7.773438 1.367188 -7.828125 1.515625 -7.828125 C 1.585938 -7.828125 1.660156 -7.804688 1.734375 -7.765625 C 1.804688 -7.734375 1.863281 -7.6875 1.90625 -7.625 L 6.28125 -1.828125 L 6.28125 -7.296875 C 6.28125 -7.453125 6.328125 -7.578125 6.421875 -7.671875 C 6.523438 -7.773438 6.648438 -7.828125 6.796875 -7.828125 C 6.941406 -7.828125 7.0625 -7.773438 7.15625 -7.671875 C 7.257812 -7.578125 7.3125 -7.453125 7.3125 -7.296875 L 7.3125 -0.515625 C 7.3125 -0.367188 7.257812 -0.242188 7.15625 -0.140625 C 7.0625 -0.046875 6.941406 0 6.796875 0 C 6.722656 0 6.644531 -0.015625 6.5625 -0.046875 C 6.488281 -0.078125 6.4375 -0.125 6.40625 -0.1875 L 2.03125 -5.984375 L 2.03125 -0.515625 C 2.03125 -0.367188 1.984375 -0.242188 1.890625 -0.140625 C 1.796875 -0.046875 1.671875 0 1.515625 0 Z M 1.515625 0 "/></g></g></g><g fill="#6f779d" fill-opacity="1"><g transform="translate(281.338259, 228.4958)"><g><path d="M 1.515625 0 C 1.367188 0 1.242188 -0.046875 1.140625 -0.140625 C 1.046875 -0.242188 1 -0.367188 1 -0.515625 L 1 -7.296875 C 1 -7.453125 1.046875 -7.578125 1.140625 -7.671875 C 1.242188 -7.773438 1.367188 -7.828125 1.515625 -7.828125 C 1.585938 -7.828125 1.660156 -7.804688 1.734375 -7.765625 C 1.804688 -7.734375 1.863281 -7.6875 1.90625 -7.625 L 6.28125 -1.828125 L 6.28125 -7.296875 C 6.28125 -7.453125 6.328125 -7.578125 6.421875 -7.671875 C 6.523438 -7.773438 6.648438 -7.828125 6.796875 -7.828125 C 6.941406 -7.828125 7.0625 -7.773438 7.15625 -7.671875 C 7.257812 -7.578125 7.3125 -7.453125 7.3125 -7.296875 L 7.3125 -0.515625 C 7.3125 -0.367188 7.257812 -0.242188 7.15625 -0.140625 C 7.0625 -0.046875 6.941406 0 6.796875 0 C 6.722656 0 6.644531 -0.015625 6.5625 -0.046875 C 6.488281 -0.078125 6.4375 -0.125 6.40625 -0.1875 L 2.03125 -5.984375 L 2.03125 -0.515625 C 2.03125 -0.367188 1.984375 -0.242188 1.890625 -0.140625 C 1.796875 -0.046875 1.671875 0 1.515625 0 Z M 1.515625 0 "/></g></g></g><g fill="#6f779d" fill-opacity="1"><g transform="translate(289.648447, 228.4958)"><g><path d="M 1.515625 0 C 1.367188 0 1.242188 -0.046875 1.140625 -0.140625 C 1.046875 -0.242188 1 -0.367188 1 -0.515625 L 1 -7.296875 C 1 -7.453125 1.046875 -7.578125 1.140625 -7.671875 C 1.242188 -7.773438 1.367188 -7.828125 1.515625 -7.828125 L 6.046875 -7.828125 C 6.203125 -7.828125 6.328125 -7.78125 6.421875 -7.6875 C 6.515625 -7.59375 6.5625 -7.472656 6.5625 -7.328125 C 6.5625 -7.191406 6.515625 -7.078125 6.421875 -6.984375 C 6.328125 -6.898438 6.203125 -6.859375 6.046875 -6.859375 L 2.046875 -6.859375 L 2.046875 -4.421875 L 4.921875 -4.421875 C 5.066406 -4.421875 5.1875 -4.375 5.28125 -4.28125 C 5.375 -4.195312 5.421875 -4.085938 5.421875 -3.953125 C 5.421875 -3.804688 5.375 -3.6875 5.28125 -3.59375 C 5.1875 -3.507812 5.066406 -3.46875 4.921875 -3.46875 L 2.046875 -3.46875 L 2.046875 -0.96875 L 6.046875 -0.96875 C 6.203125 -0.96875 6.328125 -0.921875 6.421875 -0.828125 C 6.515625 -0.742188 6.5625 -0.628906 6.5625 -0.484375 C 6.5625 -0.335938 6.515625 -0.21875 6.421875 -0.125 C 6.328125 -0.0390625 6.203125 0 6.046875 0 Z M 1.515625 0 "/></g></g></g><g fill="#6f779d" fill-opacity="1"><g transform="translate(296.657044, 228.4958)"><g><path d="M 4.5 0.09375 C 3.789062 0.09375 3.140625 -0.0820312 2.546875 -0.4375 C 1.953125 -0.789062 1.484375 -1.269531 1.140625 -1.875 C 0.804688 -2.488281 0.640625 -3.171875 0.640625 -3.921875 C 0.640625 -4.648438 0.804688 -5.316406 1.140625 -5.921875 C 1.484375 -6.535156 1.953125 -7.019531 2.546875 -7.375 C 3.140625 -7.738281 3.789062 -7.921875 4.5 -7.921875 C 5.007812 -7.921875 5.445312 -7.851562 5.8125 -7.71875 C 6.1875 -7.582031 6.566406 -7.363281 6.953125 -7.0625 C 7.035156 -7 7.085938 -6.9375 7.109375 -6.875 C 7.140625 -6.8125 7.15625 -6.738281 7.15625 -6.65625 C 7.15625 -6.519531 7.101562 -6.40625 7 -6.3125 C 6.90625 -6.226562 6.796875 -6.1875 6.671875 -6.1875 C 6.546875 -6.1875 6.425781 -6.226562 6.3125 -6.3125 C 6.039062 -6.550781 5.773438 -6.722656 5.515625 -6.828125 C 5.253906 -6.929688 4.914062 -6.984375 4.5 -6.984375 C 3.976562 -6.984375 3.5 -6.84375 3.0625 -6.5625 C 2.625 -6.289062 2.273438 -5.921875 2.015625 -5.453125 C 1.765625 -4.984375 1.640625 -4.472656 1.640625 -3.921875 C 1.640625 -3.359375 1.765625 -2.84375 2.015625 -2.375 C 2.273438 -1.90625 2.625 -1.53125 3.0625 -1.25 C 3.5 -0.976562 3.976562 -0.84375 4.5 -0.84375 C 5.144531 -0.84375 5.757812 -1.066406 6.34375 -1.515625 C 6.457031 -1.585938 6.570312 -1.625 6.6875 -1.625 C 6.8125 -1.625 6.914062 -1.578125 7 -1.484375 C 7.082031 -1.398438 7.125 -1.285156 7.125 -1.140625 C 7.125 -1.003906 7.066406 -0.878906 6.953125 -0.765625 C 6.234375 -0.191406 5.414062 0.09375 4.5 0.09375 Z M 4.5 0.09375 "/></g></g></g><g fill="#6f779d" fill-opacity="1"><g transform="translate(304.436588, 228.4958)"><g><path d="M 5.984375 -7.828125 C 6.128906 -7.828125 6.242188 -7.78125 6.328125 -7.6875 C 6.421875 -7.59375 6.46875 -7.476562 6.46875 -7.34375 C 6.46875 -7.195312 6.421875 -7.078125 6.328125 -6.984375 C 6.242188 -6.898438 6.128906 -6.859375 5.984375 -6.859375 L 3.84375 -6.859375 L 3.84375 -0.515625 C 3.84375 -0.367188 3.789062 -0.242188 3.6875 -0.140625 C 3.582031 -0.046875 3.457031 0 3.3125 0 C 3.164062 0 3.039062 -0.046875 2.9375 -0.140625 C 2.84375 -0.242188 2.796875 -0.367188 2.796875 -0.515625 L 2.796875 -6.859375 L 0.625 -6.859375 C 0.488281 -6.859375 0.375 -6.898438 0.28125 -6.984375 C 0.195312 -7.078125 0.15625 -7.195312 0.15625 -7.34375 C 0.15625 -7.476562 0.195312 -7.59375 0.28125 -7.6875 C 0.375 -7.78125 0.488281 -7.828125 0.625 -7.828125 Z M 5.984375 -7.828125 "/></g></g></g><g fill="#6f779d" fill-opacity="1"><g transform="translate(311.054702, 228.4958)"><g><path d="M 1.515625 0 C 1.367188 0 1.242188 -0.046875 1.140625 -0.140625 C 1.046875 -0.242188 1 -0.367188 1 -0.515625 L 1 -7.296875 C 1 -7.453125 1.046875 -7.578125 1.140625 -7.671875 C 1.242188 -7.773438 1.367188 -7.828125 1.515625 -7.828125 C 1.671875 -7.828125 1.796875 -7.773438 1.890625 -7.671875 C 1.992188 -7.578125 2.046875 -7.453125 2.046875 -7.296875 L 2.046875 -0.515625 C 2.046875 -0.367188 1.992188 -0.242188 1.890625 -0.140625 C 1.796875 -0.046875 1.671875 0 1.515625 0 Z M 1.515625 0 "/></g></g></g><g fill="#6f779d" fill-opacity="1"><g transform="translate(314.098432, 228.4958)"><g><path d="M 4.625 0.09375 C 3.84375 0.09375 3.148438 -0.0703125 2.546875 -0.40625 C 1.941406 -0.75 1.472656 -1.222656 1.140625 -1.828125 C 0.804688 -2.441406 0.640625 -3.140625 0.640625 -3.921875 C 0.640625 -4.691406 0.804688 -5.378906 1.140625 -5.984375 C 1.472656 -6.597656 1.941406 -7.070312 2.546875 -7.40625 C 3.148438 -7.75 3.84375 -7.921875 4.625 -7.921875 C 5.382812 -7.921875 6.066406 -7.75 6.671875 -7.40625 C 7.273438 -7.070312 7.742188 -6.597656 8.078125 -5.984375 C 8.421875 -5.378906 8.59375 -4.691406 8.59375 -3.921875 C 8.59375 -3.140625 8.421875 -2.441406 8.078125 -1.828125 C 7.742188 -1.222656 7.273438 -0.75 6.671875 -0.40625 C 6.078125 -0.0703125 5.394531 0.09375 4.625 0.09375 Z M 4.625 -0.84375 C 5.1875 -0.84375 5.691406 -0.976562 6.140625 -1.25 C 6.597656 -1.519531 6.953125 -1.890625 7.203125 -2.359375 C 7.460938 -2.828125 7.59375 -3.347656 7.59375 -3.921875 C 7.59375 -4.492188 7.460938 -5.015625 7.203125 -5.484375 C 6.953125 -5.953125 6.601562 -6.316406 6.15625 -6.578125 C 5.707031 -6.847656 5.195312 -6.984375 4.625 -6.984375 C 4.039062 -6.984375 3.523438 -6.847656 3.078125 -6.578125 C 2.628906 -6.316406 2.273438 -5.953125 2.015625 -5.484375 C 1.765625 -5.015625 1.640625 -4.492188 1.640625 -3.921875 C 1.640625 -3.347656 1.765625 -2.828125 2.015625 -2.359375 C 2.273438 -1.890625 2.628906 -1.519531 3.078125 -1.25 C 3.535156 -0.976562 4.050781 -0.84375 4.625 -0.84375 Z M 4.625 -0.84375 "/></g></g></g><g fill="#6f779d" fill-opacity="1"><g transform="translate(323.319736, 228.4958)"><g><path d="M 1.515625 0 C 1.367188 0 1.242188 -0.046875 1.140625 -0.140625 C 1.046875 -0.242188 1 -0.367188 1 -0.515625 L 1 -7.296875 C 1 -7.453125 1.046875 -7.578125 1.140625 -7.671875 C 1.242188 -7.773438 1.367188 -7.828125 1.515625 -7.828125 C 1.585938 -7.828125 1.660156 -7.804688 1.734375 -7.765625 C 1.804688 -7.734375 1.863281 -7.6875 1.90625 -7.625 L 6.28125 -1.828125 L 6.28125 -7.296875 C 6.28125 -7.453125 6.328125 -7.578125 6.421875 -7.671875 C 6.523438 -7.773438 6.648438 -7.828125 6.796875 -7.828125 C 6.941406 -7.828125 7.0625 -7.773438 7.15625 -7.671875 C 7.257812 -7.578125 7.3125 -7.453125 7.3125 -7.296875 L 7.3125 -0.515625 C 7.3125 -0.367188 7.257812 -0.242188 7.15625 -0.140625 C 7.0625 -0.046875 6.941406 0 6.796875 0 C 6.722656 0 6.644531 -0.015625 6.5625 -0.046875 C 6.488281 -0.078125 6.4375 -0.125 6.40625 -0.1875 L 2.03125 -5.984375 L 2.03125 -0.515625 C 2.03125 -0.367188 1.984375 -0.242188 1.890625 -0.140625 C 1.796875 -0.046875 1.671875 0 1.515625 0 Z M 1.515625 0 "/></g></g></g></svg>